# xmcd CD database file
# Copyright (C) 1997 Ti Kan
#
# Track frame offsets:
#  150
#  25445
#  37300
#  52550
#  63425
#  80212
#  99422
#  113280
#  126700
#  152505
#  169957
#  181922
#  196642
#  207230
#
# Disc length: 2993 seconds
#
# Revision: 1
# Processed by: cddbd v1.4b41PL1 Copyright (c) Steve Scherf et al.
# Submitted via: CDWizzard Release:4.24
#
DISCID=b90baf0e
DTITLE=Freakwater - June 6, 1994
DYEAR=1900
DGENRE=
TTITLE0=A Song You Could Cry For
TTITLE1=Are You Ready
TTITLE2=Dream Girl
TTITLE3=Childish Love
TTITLE4=Blue Eyes Crying in the Rain
TTITLE5=My Old Drunk Friend
TTITLE6=Dreadful Snake
TTITLE7=Kentucky
TTITLE8=Forgettable Song
TTITLE9=Rank Strangers
TTITLE10=Crazy Man
TTITLE11=Put My Little Shoes Away
TTITLE12=Lullaby
TTITLE13=Count Me Out
EXTD=
EXTT0=
EXTT1=
EXTT2=
EXTT3=
EXTT4=
EXTT5=
EXTT6=
EXTT7=
EXTT8=
EXTT9=
EXTT10=
EXTT11=
EXTT12=
EXTT13=
PLAYORDER=
